<svg width="15" height="15" viewBox="0 0 56 56" fill="none" xmlns="http://www.w3.org/2000/svg">
<circle cx="28" cy="28" r="28" fill="#F7F7F7"/>
<path d="M45.5003 28.42C45.5003 27.1911 45.3925 26.0245 45.2078 24.8889H27.8096V31.9045H37.7712C37.3247 34.2067 36.016 36.1511 34.076 37.4734V42.14H40.0191C43.4987 38.8889 45.5003 34.0978 45.5003 28.42Z" fill="#4285F4"/>
<path d="M27.8096 46.6667C32.7981 46.6667 36.9706 44.9867 40.0191 42.14L34.076 37.4734C32.4132 38.5934 30.3039 39.2778 27.8096 39.2778C22.9905 39.2778 18.9104 35.9956 17.4477 31.5623H11.3198V36.3689C14.353 42.4667 20.5886 46.6667 27.8096 46.6667Z" fill="#34A853"/>
<path d="M17.4475 31.5622C17.0626 30.4422 16.8624 29.2444 16.8624 28C16.8624 26.7555 17.078 25.5578 17.4475 24.4378V19.6311H11.3197C10.0571 22.1511 9.3335 24.9822 9.3335 28C9.3335 31.0178 10.0571 33.8489 11.3197 36.3689L17.4475 31.5622Z" fill="#FBBC05"/>
<path d="M27.8096 16.7223C30.5348 16.7223 32.9675 17.6712 34.892 19.5223L40.1577 14.2023C36.9706 11.1845 32.7981 9.33337 27.8096 9.33337C20.5886 9.33337 14.353 13.5334 11.3198 19.6312L17.4477 24.4378C18.9104 20.0045 22.9905 16.7223 27.8096 16.7223Z" fill="#EA4335"/>
</svg>
