<svg width="25" height="25" viewBox="0 0 32 30" fill="none" xmlns="http://www.w3.org/2000/svg">
<path d="M1.85135 5.93086C1.13862 5.26931 0.78418 4.45045 0.78418 3.47614C0.78418 2.50183 1.14052 1.64694 1.85135 0.983496C2.56407 0.321952 3.48152 -0.00976563 4.60557 -0.00976563C5.72963 -0.00976563 6.61107 0.321952 7.3219 0.983496C8.03462 1.64504 8.38906 2.47719 8.38906 3.47614C8.38906 4.47509 8.03272 5.26931 7.3219 5.93086C6.60917 6.5924 5.70499 6.92412 4.60557 6.92412C3.50616 6.92412 2.56407 6.5924 1.85135 5.93086ZM7.79009 9.72573L7.79009 30.008H1.38126L1.38126 9.72573H7.79009Z" fill="#007EBB"/>
<path d="M29.1245 11.7292C30.5215 13.2457 31.2191 15.327 31.2191 17.9769V29.6497L25.1325 29.6497V18.7996C25.1325 17.4633 24.7856 16.4245 24.0938 15.6852C23.4019 14.9459 22.4693 14.5744 21.3016 14.5744C20.134 14.5744 19.2013 14.9441 18.5095 15.6852C17.8176 16.4245 17.4707 17.4633 17.4707 18.7996V29.6497H11.3481V9.66879H17.4707V12.3187C18.0905 11.4354 18.9265 10.7379 19.9767 10.2242C21.0268 9.71048 22.2077 9.45459 23.5213 9.45459C25.8604 9.45459 27.7294 10.2128 29.1245 11.7292Z" fill="#007EBB"/>
</svg>
