<svg width="15" height="15" viewBox="0 0 56 56" fill="none" xmlns="http://www.w3.org/2000/svg">
<path d="M28 0C12.5297 0 0 12.7202 0 28.4258C0 41.7847 9.02911 52.872 21.2109 55.9976C21.0703 55.642 21.0012 55.1436 21.0012 54.6477V49.8141H17.5006C15.6109 49.8141 13.8594 48.9625 13.0897 47.3973C12.1794 45.6917 12.0388 43.062 9.7297 41.4266C9.02911 40.8581 9.58911 40.2896 10.3588 40.3598C11.8291 40.7856 13.0182 41.7823 14.1382 43.2725C15.2582 44.7652 15.7491 45.1208 17.8485 45.1208C18.8279 45.1208 20.3673 45.0506 21.7685 44.8353C22.5382 42.8443 23.8679 41.0686 25.4788 40.217C16.0994 39.08 11.6194 34.3891 11.6194 27.9927C11.6194 25.2203 12.8085 22.5906 14.7697 20.3166C14.1406 18.1127 13.2994 13.5645 15.0509 11.7888C19.2521 11.7888 21.7709 14.5613 22.4 15.2701C24.4994 14.5588 26.8109 14.1331 29.1891 14.1331C31.6388 14.1331 33.8788 14.5588 35.9782 15.2701C36.6073 14.5588 39.1285 11.7888 43.3273 11.7888C45.0073 13.4944 44.2376 18.1127 43.537 20.3166C45.4982 22.5205 46.6182 25.2203 46.6182 27.9927C46.6182 34.3891 42.2073 39.08 32.8994 40.0743C35.4897 41.4242 37.3103 45.2611 37.3103 48.1037V54.5775C37.3103 54.7904 37.2412 55.0033 37.2412 55.2162C48.16 51.3793 56 40.863 56 28.4258C56 12.7202 43.4703 0 28 0Z" fill="#F4FEFF"/>
</svg>
